<?xml version="1.0" encoding="UTF-8"?>
<svg style="background:#f8f4f0" width="980" height="901" viewBox="0 0 980 901" fill="none" xmlns="http://www.w3.org/2000/svg">
  <g stroke="#111827" stroke-linecap="round" stroke-linejoin="round">
    <path stroke-opacity="0.74" stroke-width="5" d="M212.946 536.883C216.18 525.117 222.459 514.393 231.155 505.78C239.852 497.167 250.663 490.967 262.51 487.797C274.357 484.627 286.827 484.599 298.675 487.715C310.524 490.83 317.994 493.867 326.693 502.44M369.656 602.048C368.35 614.359 363.655 626.306 356.038 636.698C348.42 647.09 338.148 655.563 326.244 661.272C314.34 666.982 301.221 669.728 288.196 669.238C275.17 668.747 266.767 667.381 256.082 660.82"/>
    <path stroke-width="6" d="M455 470L414 491M345 380L306.5 400M435.5 443L394.5 464M411.5 417L370.5 438M382 396L341 417M487.5 616.5L449 634.5M474 505L433 526M485 544L444 565M490 584L449 605M482 647L441.5 667M465 681.5L427.5 698M312 373.5L273.5 393.5"/>
    <path stroke-width="4" d="M412.608 616.011C408.699 673.817 373.822 716 308.615 716C235.116 716 171 628.563 171 549.612C171 492.587 205.877 434 271.084 434C336.291 434 419.408 515.47 412.608 616.011Z"/>
    <path stroke-width="6" d="M157 546.011C157 480.898 196.056 414 269.077 414C342.098 414 435.176 507.026 427.561 621.828C423.183 687.834 384.127 736 311.106 736C228.799 736 157 636.16 157 546.011Z"/>
    <path stroke-width="6" d="M226.578 400.76C246.688 382.108 274.495 372 310.17 372C393.16 372 498.945 476.293 490.291 605C486.217 665.594 454.721 714.595 398.24 729.702M290.267 372.5C311.283 352.518 339.269 343 375.85 343C467.359 343 550 432.304 550 540C550 630.019 516.302 683.915 450.983 699.713M447.5 627C442.524 701 398.136 755 315.146 755C221.602 755 140 643.068 140 542C140 469 184.388 394 267.379 394C350.369 394 456.154 498.293 447.5 627Z"/>
    <path stroke-width="4" d="M526 195.5L578 169.5M526 195.5L505.5 190.5M526 195.5V206.5M505.5 190.5L537.5 169.5M505.5 190.5V200.279M455.5 176L505.5 148M455.5 176L432 169.5M455.5 176L455.156 185M425.5 176L455.156 185M455.156 185L505.5 200.279"/>
    <path stroke-width="4" d="M505.5 215.5L522 310.5M505.5 215.5L526 206.5M505.5 215.5L405 185M522 310.5L609.5 317.5M522 310.5L325.5 253.5M522 310.5L529 364M526 206.5L505.5 200.279"/>
    <path stroke-width="4" d="M609.5 317.5L553 210.5M609.5 317.5L643 281.5M609.5 317.5L569.25 340.75M553 210.5L581.5 195.5M553 210.5L526 206.5M529 364L569.25 340.75M569.25 340.75C602 352.167 674.2 376.1 701 380.5C734.5 386 758.5 394.5 787.5 380.5C810.7 369.3 827.167 349.333 832.5 340.75"/>
    <path stroke-width="4" d="M325.5 253.5L385 195.5C358.145 237.229 292.713 216.824 293.642 195.5M325.5 253.5L323.702 266.5M325.5 253.5C308 250.5 295 244 291 232.5V215.5M319 300.5L323.702 266.5M319 300.5C304.715 294.229 298.604 322.593 296.268 345.5M319 300.5L529 364M295 369C294.949 364.402 295.251 355.467 296.268 345.5M323.702 266.5L182.5 223.5C177.667 221.5 165.2 215.3 154 206.5M296.268 345.5L176.5 307.5C167 304.5 152.9 292.3 148.5 281.5M291 215.5C287.5 219.333 272.7 226.3 241.5 223.5C210.3 220.7 198.5 210.5 196 200.5C193.5 190.5 203 172.5 203 172.5C216.5 200.279 261.5 210.5 304 182.5C296.966 186.495 293.838 191.018 293.642 195.5M291 215.5C291.006 213.167 291.542 205.9 293.642 195.5M268.029 281.5C277.409 274.891 287.068 278.005 291 281.5C300 289.5 300.5 297 300.5 304.5C300.5 313.101 294.406 317.362 287.5 318.863M268.029 281.5C266.674 282.454 265.325 283.612 264 285C253.5 296 263 313.5 271 317.5C274.741 319.37 281.434 320.182 287.5 318.863M268.029 281.5C274.805 281.5 288.886 284.4 291 296C293.642 310.5 291.5 314.226 287.5 318.863"/>
    <path stroke-width="4" d="M529 364C548 369 548.233 411.5 549.5 462C550.497 501.705 552 543.034 552 551C552 575.5 547.5 663.5 542 680C539.097 688.708 538 701 517 711C530.101 711 539.294 701.835 545.075 692M539 359C558 364 558.233 406.5 559.5 457C560.497 496.705 562 538.034 562 546C562 570.5 557.5 658.5 552 675C550.918 679.584 548.648 685.92 545.075 692M545.075 692C553.716 687.833 572.8 677.8 580 671M580 671C589 662.5 610 517 595 443M580 671C615.5 685.333 689.9 714.5 703.5 716.5C720.5 719 740.942 722.676 757 716.5C763.5 714 772.939 708.624 779 704.5M595 443L589 359C589 353.167 585.05 341.35 569.25 340.75M595 443C626 454.667 692 478.4 708 480C728 482 765 487.5 787.5 472M818 671C810.47 679.247 794.367 694.042 779 704.5M787.5 472C809.5 457.918 823 447.544 832.5 435M787.5 472C791 495.5 786.2 678.771 779 704.5M768.5 397.5C768.5 425.5 767.833 451.167 765 467.5M678.5 289.5C674.312 294.735 672.898 299.768 673.562 304.5M673.562 304.5C675.118 315.587 688.081 325.017 703.5 331.5C725.5 340.75 769.5 334.5 791 317.5V345.5C782.333 355.167 753.8 370.4 719 364C684.2 357.6 670 341.833 666.5 334.5L673.562 304.5ZM653.5 387.871C659.554 385.414 664.522 384.462 678.5 387.871C699 392.871 703.5 413.5 703.5 427C703.5 443 692.661 452.977 678.5 457.918M653.5 387.871C641.578 392.709 633 402.225 633 413.5C632.5 431.5 636 439 653.5 451.5C659.252 455.609 666.5 457.918 678.5 457.918M653.5 387.871C673.562 392 683 397 689 417.5C693.8 433.9 684.333 451.112 678.5 457.918M740 508C742 534 736 657.5 730 687"/>
    <path stroke-width="8" d="M146.5 489.5C143.567 428.647 147.967 289.958 149.999 213C150.435 196.5 181.666 180.333 200.999 173L206.999 163C258 127 300.5 154 303.5 179.5C338 165.5 377 182.5 384.5 194.5L406.5 182L428.999 173L433.999 163L481.999 140C490.568 142.526 498.268 144.795 505.499 146.926V159L538.499 168L549.999 160.042C558.245 162.472 567.034 165.063 576.999 168L583.999 202L613.999 213L643.999 281L677 290C703 275 710.6 272.8 741 276C771.4 279.2 792.5 299.5 792.5 317C797.166 320.333 805.7 323.2 818.5 328C831.3 332.8 841.932 347 839.5 366C823.5 491 829 684 807 720C785 756 726 768 690 756C678.744 752.248 616.381 728.463 544 701C544 701 542 710 518 711C511.38 711.276 494.535 705.374 467.5 697"/>
  </g>
</svg>
